# 
# Wavefront OBJ file
# Converted by the DEEP Exploration 3.5.10.1242
# Right Hemisphere, LTD
# http://www.righthemisphere.com/
# 
mtllib bure4.mtl
# object MSH-cube
g MSH_cube
v -4 -0.0560939 -4
v 4 0.832795 -4
v 4 -0.0560939 -4
v -4 0.832795 -4
v 0.100747 9.21291 -0.084112
v -0.100747 9.21291 0.084112
v 0.100747 9.21291 0.084112
v -0.100747 9.21291 -0.084112
v -4 -0.0560939 -4
v -4 0.832795 4
v -4 0.832795 -4
v -4 -0.0560939 4
v 4 -0.0560939 -4
v 4 0.832795 4
v 4 -0.0560939 4
v 4 0.832795 -4
v 3.0994 1.72168 -3.0994
v -3.0994 1.72168 -3.0994
v -3.0994 1.72168 3.0994
v -3.0994 1.72168 -3.0994
v 3.0994 1.72168 3.0994
v 3.0994 1.72168 -3.0994
v 3.0994 2.61057 -3.0994
v -3.0994 2.61057 -3.0994
v -3.0994 2.61057 3.0994
v -3.0994 2.61057 -3.0994
v 3.0994 2.61057 3.0994
v 3.0994 2.61057 -3.0994
v 4 3.49946 -4
v -4 3.49946 -4
v -4 3.49946 4
v -4 3.49946 -4
v 4 3.49946 4
v 4 3.49946 -4
v 4 4.38835 -4
v -4 4.38835 -4
v -4 4.38835 4
v -4 4.38835 -4
v 4 4.38835 4
v 4 4.38835 -4
v 3.11887 5.27724 -3.11887
v -3.11887 5.27724 -3.11887
v -3.11887 5.27724 3.11887
v -3.11887 5.27724 -3.11887
v 3.11887 5.27724 3.11887
v 3.11887 5.27724 -3.11887
v 3.11887 6.16613 -3.11887
v -3.11887 6.16613 -3.11887
v -3.11887 6.16613 3.11887
v -3.11887 6.16613 -3.11887
v 3.11887 6.16613 3.11887
v 3.11887 6.16613 -3.11887
v 4 7.05502 -4
v -4 7.05502 -4
v -4 7.05502 4
v -4 7.05502 -4
v 4 7.05502 4
v 4 7.05502 -4
v 4 7.94391 -4
v -4 7.94391 -4
v -4 7.94391 4
v -4 7.94391 -4
v 4 7.94391 4
v 4 7.94391 -4
v 1.581 8.40091 0
v 3.162 8.40091 -1.581
v 0 8.40091 -1.581
v 3.162 8.40091 0
v -4 -0.0560939 4
v 4 0.832795 4
v -4 0.832795 4
v 4 -0.0560939 4
v 3.0994 1.72168 3.0994
v -3.0994 1.72168 3.0994
v 3.0994 2.61057 3.0994
v -3.0994 2.61057 3.0994
v 4 3.49946 4
v -4 3.49946 4
v 4 4.38835 4
v -4 4.38835 4
v 3.11887 5.27724 3.11887
v -3.11887 5.27724 3.11887
v 3.11887 6.16613 3.11887
v -3.11887 6.16613 3.11887
v 4 7.05502 4
v -4 7.05502 4
v 4 7.94391 4
v -4 7.94391 4
v -4 7.94391 -4
v -3.162 7.94391 3.162
v -3.162 7.94391 -3.162
v -4 7.94391 4
v 3.162 7.94391 3.162
v 4 7.94391 4
v 3.162 7.94391 -3.162
v 4 7.94391 -4
v -3.162 7.94391 -3.162
v -3.162 8.40091 3.162
v -3.162 8.40091 -3.162
v -3.162 7.94391 3.162
v -3.162 7.94391 3.162
v 3.162 8.40091 3.162
v -3.162 8.40091 3.162
v 3.162 7.94391 3.162
v 3.162 8.40091 -3.162
v 3.162 7.94391 3.162
v 3.162 7.94391 -3.162
v 3.162 8.40091 -1.581
v 3.162 8.40091 0
v 3.162 8.40091 3.162
v 3.162 7.94391 -3.162
v -3.162 8.40091 -3.162
v 3.162 8.40091 -3.162
v -3.162 7.94391 -3.162
v -3.162 8.40091 3.162
v 3.162 8.40091 3.162
v 0 8.40091 1.581
v -1.581 8.40091 0
v 3.162 8.40091 -3.162
v -3.162 8.40091 -3.162
v -1.49689 8.85791 0.084112
v -0.100747 9.21291 0.084112
v -1.49689 9.21291 0.084112
v -0.100747 8.85791 0.084112
v -1.49689 8.85791 -0.084112
v -1.49689 9.21291 0.084112
v -1.49689 9.21291 -0.084112
v -1.49689 8.85791 0.084112
v -0.100747 8.85791 -0.084112
v -1.49689 9.21291 -0.084112
v -0.100747 9.21291 -0.084112
v -1.49689 8.85791 -0.084112
v -0.100747 8.85791 -0.084112
v -0.100747 8.85791 -1.48025
v -1.49689 8.85791 -0.084112
v -0.100747 8.85791 -1.48025
v -0.100747 9.21291 -0.084112
v -0.100747 9.21291 -1.48025
v -0.100747 8.85791 -0.084112
v 0.100747 8.85791 -1.48025
v -0.100747 9.21291 -1.48025
v 0.100747 9.21291 -1.48025
v -0.100747 8.85791 -1.48025
v 0.100747 8.85791 -0.084112
v 0.100747 9.21291 -1.48025
v 0.100747 9.21291 -0.084112
v 0.100747 8.85791 -1.48025
v -0.100747 8.85791 0.084112
v -1.49689 8.85791 0.084112
v -0.100747 8.85791 1.48025
v 1.49689 8.85791 -0.084112
v 0.100747 9.21291 -0.084112
v 1.49689 9.21291 -0.084112
v 0.100747 8.85791 -0.084112
v 1.49689 8.85791 0.084112
v 1.49689 9.21291 -0.084112
v 1.49689 9.21291 0.084112
v 1.49689 8.85791 -0.084112
v 0.100747 8.85791 0.084112
v 1.49689 9.21291 0.084112
v 0.100747 9.21291 0.084112
v 1.49689 8.85791 0.084112
v 0.100747 8.85791 1.48025
v 0.100747 9.21291 0.084112
v 0.100747 9.21291 1.48025
v 0.100747 8.85791 0.084112
v 0.100747 8.85791 0.084112
v 0.100747 8.85791 1.48025
v 1.49689 8.85791 0.084112
v -0.100747 8.85791 1.48025
v 0.100747 9.21291 1.48025
v -0.100747 9.21291 1.48025
v 0.100747 8.85791 1.48025
v -0.100747 8.85791 0.084112
v -0.100747 9.21291 1.48025
v -0.100747 9.21291 0.084112
v -0.100747 8.85791 1.48025
v -1.49689 9.21291 0.084112
v -1.49689 9.21291 -0.084112
v 0.100747 8.85791 -0.084112
v 1.49689 8.85791 -0.084112
v 0.100747 8.85791 -1.48025
v 1.49689 9.21291 -0.084112
v 1.49689 9.21291 0.084112
v -1.581 8.40091 0
v 0 8.71543 -1.581
v 0 8.40091 -1.581
v -1.581 8.73895 0
v 0 8.40091 1.581
v 0 8.71543 1.581
v 1.581 8.40091 0
v 1.581 8.73895 0
v 0 8.71543 1.581
v 0 8.71543 -1.581
v 0.100747 9.21291 1.48025
v -0.100747 9.21291 1.48025
v -0.100747 9.21291 -1.48025
v 0.100747 9.21291 -1.48025
# 198 verticies
vt 0.982597 0.488103
vt 0.505011 0.541168
vt 0.505011 0.488103
vt 0.982597 0.541168
vt 0.254601 0.248114
vt 0.242778 0.238243
vt 0.254601 0.238243
vt 0.242778 0.248114
vt 0.004847 0.4854
vt 0.482751 0.539012
vt 0.004847 0.539012
vt 0.482751 0.4854
vt 0.484658 0.486191
vt 0.003178 0.539689
vt 0.003178 0.486191
vt 0.484658 0.539689
vt 0.558776 0.594233
vt 0.928833 0.594233
vt 0.428951 0.592623
vt 0.058647 0.592623
vt 0.057381 0.593187
vt 0.430456 0.593187
vt 0.558776 0.647298
vt 0.928833 0.647298
vt 0.428951 0.646235
vt 0.058647 0.646235
vt 0.057381 0.646685
vt 0.430456 0.646685
vt 0.505011 0.700363
vt 0.982597 0.700363
vt 0.482751 0.699847
vt 0.004847 0.699847
vt 0.003178 0.700182
vt 0.484658 0.700182
vt 0.505011 0.753428
vt 0.982597 0.753428
vt 0.482751 0.753458
vt 0.004847 0.753458
vt 0.003178 0.75368
vt 0.484658 0.75368
vt 0.557614 0.806494
vt 0.929995 0.806494
vt 0.430113 0.80707
vt 0.057484 0.80707
vt 0.056209 0.807178
vt 0.431627 0.807178
vt 0.557614 0.859559
vt 0.929995 0.859559
vt 0.430113 0.860681
vt 0.057484 0.860681
vt 0.056209 0.860676
vt 0.431627 0.860676
vt 0.505011 0.912624
vt 0.982597 0.912624
vt 0.482751 0.914293
vt 0.004847 0.914293
vt 0.003178 0.914174
vt 0.484658 0.914174
vt 0.505011 0.965689
vt 0.982597 0.965689
vt 0.482751 0.967905
vt 0.004847 0.967905
vt 0.003178 0.967671
vt 0.484658 0.967671
vt 0.341456 0.243179
vt 0.434223 0.335946
vt 0.24869 0.335946
vt 0.434223 0.243179
vt 0.502924 0.489926
vt 0.980552 0.542628
vt 0.502924 0.542628
vt 0.980552 0.489926
vt 0.926783 0.59533
vt 0.556693 0.59533
vt 0.926783 0.648032
vt 0.556693 0.648032
vt 0.980552 0.700734
vt 0.502924 0.700734
vt 0.980552 0.753436
vt 0.502924 0.753436
vt 0.927945 0.806138
vt 0.555531 0.806138
vt 0.927945 0.85884
vt 0.555531 0.85884
vt 0.980552 0.911542
vt 0.502924 0.911542
vt 0.980552 0.964244
vt 0.502924 0.964244
vt 0.013985 0.477883
vt 0.063156 0.057645
vt 0.063156 0.428712
vt 0.013985 0.008474
vt 0.434223 0.057645
vt 0.483394 0.008474
vt 0.434223 0.428712
vt 0.483394 0.477883
vt 0.054908 0.967905
vt 0.43269 0.995468
vt 0.054908 0.995468
vt 0.43269 0.967905
vt 0.552956 0.964244
vt 0.93052 0.99134
vt 0.552956 0.99134
vt 0.93052 0.964244
vt 0.434223 0.995176
vt 0.053613 0.967671
vt 0.434223 0.967671
vt 0.339071 0.995176
vt 0.243918 0.995176
vt 0.053613 0.995176
vt 0.555038 0.965689
vt 0.93257 0.992971
vt 0.555038 0.992971
vt 0.93257 0.965689
vt 0.24869 0.150412
vt 0.155923 0.243179
vt 0.539815 0.4243
vt 0.737783 0.474638
vt 0.539815 0.474638
vt 0.737783 0.4243
vt 0.762144 0.424392
vt 0.737861 0.473034
vt 0.762144 0.473034
vt 0.737861 0.424392
vt 0.242778 0.330034
vt 0.160858 0.248114
vt 0.963678 0.424392
vt 0.963678 0.473034
vt 0.766354 0.4243
vt 0.766354 0.474638
vt 0.160858 0.238243
vt 0.242778 0.156323
vt 0.964323 0.4243
vt 0.964323 0.474638
vt 0.536328 0.424392
vt 0.536328 0.473034
vt 0.254601 0.156323
vt 0.336521 0.238243
vt 0.336521 0.248114
vt 0.254601 0.330034
vt 0.750003 0.361774
vt 0.97822 0.40487
vt 0.97822 0.361774
vt 0.750003 0.408094
vt 0.521785 0.361774
vt 0.521785 0.40487
vt 0.752069 0.404098
# 147 texture verticies
vn 0 0 -1
vn 0 0.254676 -0.967027
vn 0 0.509351 -0.860559
vn 0 1 0
vn -1 0 0
vn -0.967027 0.254676 0
vn -0.860559 0.509351 0
vn 1 0 0
vn 0.967027 0.254676 0
vn 0.860559 0.509351 0
vn 0 -0.254676 -0.967027
vn 0 -0.509351 -0.860559
vn -0.967027 -0.254676 0
vn -0.860559 -0.509351 0
vn 0.967027 -0.254676 0
vn 0.860559 -0.509351 0
vn 0 0.251417 -0.967879
vn 0 0.502834 -0.864383
vn -0.967879 0.251417 0
vn -0.864383 0.502834 0
vn 0.967879 0.251417 0
vn 0.864383 0.502834 0
vn 0 -0.251417 -0.967879
vn 0 -0.502834 -0.864383
vn -0.967879 -0.251417 0
vn -0.864383 -0.502834 0
vn 0.967879 -0.251417 0
vn 0.864383 -0.502834 0
vn 0 0 1
vn 0 0.254676 0.967027
vn 0 0.509351 0.860559
vn 0 -0.254676 0.967027
vn 0 -0.509351 0.860559
vn 0 0.251417 0.967879
vn 0 0.502834 0.864383
vn 0 -0.251417 0.967879
vn 0 -0.502834 0.864383
vn -0.94057 0.128357 -0.314408
vn -0.904042 0.161559 0.395736
vn 0 0.200813 -0.97963
vn 0 0.302905 -0.953021
vn 0.94057 0.128357 0.314408
vn 0.904042 0.161559 -0.395736
vn 0 0.200813 0.97963
vn 0 0.302905 0.953021
vn -0.857493 -3.7338e-008 -0.514496
vn 0 -2.2922e-008 -1
vn -0.707107 -7.69742e-008 -0.707107
vn -0.95496 0.187672 0.229851
vn -2.10734e-008 -1.37451e-007 1
vn -0.707107 -2.02059e-009 0.707107
vn 0.857493 -3.7338e-008 -0.514496
vn 0.95496 0.187672 0.229851
vn 0.707107 -2.02059e-009 0.707107
vn 0.707107 -7.69742e-008 -0.707107
vn 0 0.57735 0.816497
vn 0 0.57735 -0.816497
# 57 normals
usemtl DefaultLib_Mater
f  1/1/1 2/2/2 3/3/1
f  1/1/1 4/4/3 2/2/2
f  5/5/4 6/6/4 7/7/4
f  5/5/4 8/8/4 6/6/4
f  9/9/5 10/10/6 11/11/7
f  9/9/5 12/12/5 10/10/6
f  13/13/8 14/14/9 15/15/8
f  13/13/8 16/16/10 14/14/9
f  4/4/3 17/17/3 2/2/2
f  4/4/3 18/18/2 17/17/3
f  11/11/7 19/19/7 20/20/6
f  11/11/7 10/10/6 19/19/7
f  16/16/10 21/21/10 14/14/9
f  16/16/10 22/22/9 21/21/10
f  18/18/2 23/23/11 17/17/3
f  18/18/2 24/24/12 23/23/11
f  20/20/6 25/25/13 26/26/14
f  20/20/6 19/19/7 25/25/13
f  22/22/9 27/27/15 21/21/10
f  22/22/9 28/28/16 27/27/15
f  24/24/12 29/29/12 23/23/11
f  24/24/12 30/30/11 29/29/12
f  26/26/14 31/31/14 32/32/13
f  26/26/14 25/25/13 31/31/14
f  28/28/16 33/33/16 27/27/15
f  28/28/16 34/34/15 33/33/16
f  30/30/11 35/35/17 29/29/12
f  30/30/11 36/36/18 35/35/17
f  32/32/13 37/37/19 38/38/20
f  32/32/13 31/31/14 37/37/19
f  34/34/15 39/39/21 33/33/16
f  34/34/15 40/40/22 39/39/21
f  36/36/18 41/41/18 35/35/17
f  36/36/18 42/42/17 41/41/18
f  38/38/20 43/43/20 44/44/19
f  38/38/20 37/37/19 43/43/20
f  40/40/22 45/45/22 39/39/21
f  40/40/22 46/46/21 45/45/22
f  42/42/17 47/47/23 41/41/18
f  42/42/17 48/48/24 47/47/23
f  44/44/19 49/49/25 50/50/26
f  44/44/19 43/43/20 49/49/25
f  46/46/21 51/51/27 45/45/22
f  46/46/21 52/52/28 51/51/27
f  48/48/24 53/53/24 47/47/23
f  48/48/24 54/54/23 53/53/24
f  50/50/26 55/55/26 56/56/25
f  50/50/26 49/49/25 55/55/26
f  52/52/28 57/57/28 51/51/27
f  52/52/28 58/58/27 57/57/28
f  54/54/23 59/59/1 53/53/24
f  54/54/23 60/60/1 59/59/1
f  56/56/25 61/61/5 62/62/5
f  56/56/25 55/55/26 61/61/5
f  58/58/27 63/63/8 57/57/28
f  58/58/27 64/64/8 63/63/8
f  65/65/4 66/66/4 67/67/4
f  65/65/4 68/68/4 66/66/4
f  69/69/29 70/70/30 71/71/31
f  69/69/29 72/72/29 70/70/30
f  71/71/31 73/73/31 74/74/30
f  71/71/31 70/70/30 73/73/31
f  74/74/30 75/75/32 76/76/33
f  74/74/30 73/73/31 75/75/32
f  76/76/33 77/77/33 78/78/32
f  76/76/33 75/75/32 77/77/33
f  78/78/32 79/79/34 80/80/35
f  78/78/32 77/77/33 79/79/34
f  80/80/35 81/81/35 82/82/34
f  80/80/35 79/79/34 81/81/35
f  82/82/34 83/83/36 84/84/37
f  82/82/34 81/81/35 83/83/36
f  84/84/37 85/85/37 86/86/36
f  84/84/37 83/83/36 85/85/37
f  86/86/36 87/87/29 88/88/29
f  86/86/36 85/85/37 87/87/29
f  89/89/4 90/90/4 91/91/4
f  89/89/4 92/92/4 90/90/4
f  92/92/4 93/93/4 90/90/4
f  92/92/4 94/94/4 93/93/4
f  94/94/4 95/95/4 93/93/4
f  94/94/4 96/96/4 95/95/4
f  96/96/4 91/91/4 95/95/4
f  96/96/4 89/89/4 91/91/4
f  97/97/5 98/98/5 99/99/5
f  97/97/5 100/100/5 98/98/5
f  101/101/29 102/102/29 103/103/29
f  101/101/29 104/104/29 102/102/29
f  105/105/8 106/106/8 107/107/8
f  108/108/8 106/106/8 105/105/8
f  109/109/8 106/106/8 108/108/8
f  110/110/8 106/106/8 109/109/8
f  111/111/1 112/112/1 113/113/1
f  111/111/1 114/114/1 112/112/1
f  115/90/4 116/93/4 117/115/4
f  68/68/4 117/115/4 116/93/4
f  65/65/4 117/115/4 68/68/4
f  118/116/4 115/90/4 117/115/4
f  119/95/4 67/67/4 66/66/4
f  120/91/4 67/67/4 119/95/4
f  120/91/4 118/116/4 67/67/4
f  120/91/4 115/90/4 118/116/4
f  121/117/29 122/118/29 123/119/29
f  121/117/29 124/120/29 122/118/29
f  125/121/38 126/122/5 127/123/5
f  125/121/38 128/124/39 126/122/5
f  129/120/1 130/119/1 131/118/1
f  129/120/1 132/117/1 130/119/1
f  133/8/4 134/125/4 135/126/4
f  136/127/5 137/123/5 138/128/5
f  136/127/5 139/121/5 137/123/5
f  140/129/40 141/118/1 142/130/1
f  140/129/40 143/120/41 141/118/1
f  144/121/8 145/128/8 146/123/8
f  144/121/8 147/127/8 145/128/8
f  148/6/4 149/131/4 150/132/4
f  151/133/1 152/130/1 153/134/1
f  151/133/1 154/129/1 152/130/1
f  155/124/42 156/123/8 157/122/8
f  155/124/42 158/121/43 156/123/8
f  159/129/29 160/134/29 161/130/29
f  159/129/29 162/133/29 160/134/29
f  163/135/8 164/122/8 165/136/8
f  163/135/8 166/124/8 164/122/8
f  167/7/4 168/137/4 169/138/4
f  170/120/44 171/130/29 172/118/29
f  170/120/44 173/129/45 171/130/29
f  174/124/5 175/136/5 176/122/5
f  174/124/5 177/135/5 175/136/5
f  178/131/4 8/8/4 179/126/4
f  178/131/4 6/6/4 8/8/4
f  180/5/4 181/139/4 182/140/4
f  7/7/4 183/139/4 5/5/4
f  7/7/4 184/138/4 183/139/4
f  185/141/46 186/142/47 187/143/1
f  185/141/46 136/127/48 186/142/47
f  136/127/48 185/141/46 125/121/38
f  188/144/49 125/121/38 185/141/46
f  189/145/50 188/144/49 185/141/46
f  189/145/50 128/124/39 188/144/49
f  128/124/39 189/145/50 177/135/51
f  190/146/29 177/135/51 189/145/50
f  191/141/52 192/144/53 189/145/50
f  192/144/53 155/124/42 189/145/50
f  163/135/54 189/145/50 155/124/42
f  190/146/29 189/145/50 163/135/54
f  187/143/1 186/142/47 191/141/52
f  186/142/47 147/127/55 191/141/52
f  158/121/43 191/141/52 147/127/55
f  192/144/53 191/141/52 158/121/43
f  170/120/44 193/147/56 173/129/45
f  140/129/40 194/147/57 143/120/41
f  6/6/4 195/137/4 7/7/4
f  6/6/4 196/132/4 195/137/4
f  5/5/4 197/125/4 8/8/4
f  5/5/4 198/140/4 197/125/4
f  155/124/42 192/144/53 158/121/43
f  125/121/38 188/144/49 128/124/39
