# 
# Wavefront OBJ file
# Converted by the DEEP Exploration 3.5.7.1088
# Right Hemisphere, LTD
# http://www.righthemisphere.com/
# 
mtllib bure5.mtl
# object MSH-cylinder
g MSH_cylinder
v -0.347235 -1.97441 -0.601426
v 0 1.82155 0
v -0.694467 -1.84589 0
v -1.38894 -1.54383 0
v -2.0834 -1.24655 0
v -2.0834 -0.969542 0
v -1.40013 -0.69253 0
v -1.40013 -0.415518 0
v -2.0834 -0.138506 0
v -2.0834 0.138506 0
v -1.40028 0.320808 0
v -1.40028 0.597819 0
v -2.0834 0.706039 0
v -2.0834 0.983051 0
v -1.38894 1.1913 0
v -0.213326 1.77424 0
v -0.347235 -1.97441 0.601426
v -0.694467 -1.54383 1.20285
v -1.0417 -1.24655 1.80428
v -1.0417 -0.969542 1.80428
v -0.700067 -0.69253 1.21255
v -0.700067 -0.415518 1.21255
v -1.0417 -0.138506 1.80428
v -1.0417 0.138506 1.80428
v -0.70014 0.320808 1.21268
v -0.70014 0.597819 1.21268
v -1.0417 0.706039 1.80428
v -1.0417 0.983051 1.80428
v -0.694467 1.1913 1.20285
v -0.347235 1.64017 0.601426
v 0.347235 -1.84589 0.601426
v 0.694467 -1.54383 1.20285
v 1.0417 -1.24655 1.80428
v 1.0417 -0.969542 1.80428
v 0.700067 -0.69253 1.21255
v 0.700067 -0.415518 1.21255
v 1.0417 -0.138506 1.80428
v 1.0417 0.138506 1.80428
v 0.70014 0.320808 1.21268
v 0.70014 0.597819 1.21268
v 1.0417 0.706039 1.80428
v 1.0417 0.983051 1.80428
v 0.694467 1.1913 1.20285
v 0.347235 1.64017 0.601426
v 0.694467 -1.84589 0
v 1.38894 -1.54383 0
v 2.0834 -1.24655 0
v 2.0834 -0.969542 0
v 1.40013 -0.69253 0
v 1.40013 -0.415518 0
v 2.0834 -0.138506 0
v 2.0834 0.138506 0
v 1.40028 0.320808 0
v 1.40028 0.597819 0
v 2.0834 0.706039 0
v 2.0834 0.983051 0
v 1.38894 1.1913 0
v 0.694467 1.64017 0
v 0.347235 -1.84589 -0.601426
v 0.694467 -1.54383 -1.20285
v 1.0417 -1.24655 -1.80428
v 1.0417 -0.969542 -1.80428
v 0.700067 -0.69253 -1.21255
v 0.700067 -0.415518 -1.21255
v 1.0417 -0.138506 -1.80428
v 1.0417 0.138506 -1.80428
v 0.70014 0.320808 -1.21268
v 0.70014 0.597819 -1.21268
v 1.0417 0.706039 -1.80428
v 1.0417 0.983051 -1.80428
v 0.694467 1.1913 -1.20285
v 0.347235 1.64017 -0.601426
v -0.347235 -1.84589 -0.601426
v -0.694467 -1.54383 -1.20285
v -1.0417 -1.24655 -1.80428
v -1.0417 -0.969542 -1.80428
v -0.700067 -0.69253 -1.21255
v -0.700067 -0.415518 -1.21255
v -1.0417 -0.138506 -1.80428
v -1.0417 0.138506 -1.80428
v -0.70014 0.320808 -1.21268
v -0.70014 0.597819 -1.21268
v -1.0417 0.706039 -1.80428
v -1.0417 0.983051 -1.80428
v -0.694467 1.1913 -1.20285
v -0.347235 1.64017 -0.601426
v -0.694467 1.64017 0
v -0.106664 1.77424 0.184746
v 0.106664 1.77424 0.184746
v 0.213326 1.77424 0
v 0.106664 1.77424 -0.184746
v -0.106664 1.77424 -0.184746
v -0.694467 -1.97441 0
v -0.347235 -1.84589 0.601426
v 0.347235 -1.97441 0.601426
v 0.694467 -1.97441 0
v 0.347235 -1.97441 -0.601426
# 97 verticies
vt 0.994198 0.134113
vt 0.642572 0.134113
vt 0.642572 0.059098
vt 0.994198 0.059098
vt 0.22874 0.386317
vt 0.442347 0.386754
vt 0.549529 0.201984
vt 0.122315 0.20111
vt 0.120802 0.199786
vt 0.548015 0.20066
vt 0.655197 0.01589
vt 0.014377 0.014579
vt 0.017004 0.395645
vt 0.606315 0.395645
vt 0.606315 0.472282
vt 0.017004 0.472282
vt 0.961387 0.383077
vt 0.464565 0.382665
vt 0.545393 0.246711
vt 0.882335 0.247245
vt 0.537743 0.815625
vt 0.969861 0.815794
vt 0.969766 0.895548
vt 0.537576 0.895297
vt 0.903491 0.758424
vt 0.568435 0.756841
vt 0.486107 0.618638
vt 0.984645 0.616629
vt 0.477887 0.531545
vt 0.984224 0.531545
vt 0.984224 0.608182
vt 0.477887 0.608182
vt 0.471073 0.909383
vt 0.99342 0.909383
vt 0.99342 0.99411
vt 0.471073 0.99411
vt 0.013404 0.482867
vt 0.508385 0.482357
vt 0.423818 0.627922
vt 0.096119 0.626872
vt 0.343625 0.770974
vt 0.179579 0.770197
vt 0.236263 0.871816
vt 0.286942 0.871555
vt 0.2617 0.916259
vt 0.99248 0.134113
vt 0.640854 0.134113
vt 0.640854 0.059098
vt 0.99248 0.059098
vt 0.228593 0.386481
vt 0.4422 0.386481
vt 0.549004 0.201492
vt 0.12179 0.201492
vt 0.655808 0.016502
vt 0.014986 0.016502
vt 0.481777 0.531545
vt 0.988114 0.531545
vt 0.988114 0.608182
vt 0.481777 0.608182
vt 0.470184 0.908566
vt 0.993528 0.908566
vt 0.993528 0.995502
vt 0.470184 0.995502
vt 0.228446 0.386754
vt 0.442053 0.386317
vt 0.548478 0.20111
vt 0.121265 0.201984
vt 0.122212 0.199349
vt 0.549423 0.201096
vt 0.656982 0.016546
vt 0.016166 0.013924
vt 0.477692 0.531545
vt 0.984029 0.531545
vt 0.984029 0.608182
vt 0.477692 0.608182
vt 0.469265 0.906989
vt 0.995219 0.906989
vt 0.995219 0.994737
vt 0.469265 0.994737
vt 0.229208 0.387733
vt 0.442804 0.385548
vt 0.547711 0.199476
vt 0.120519 0.203845
vt 0.1224 0.201328
vt 0.549613 0.202202
vt 0.656795 0.017432
vt 0.015975 0.016121
vt 0.481581 0.531545
vt 0.987919 0.531545
vt 0.987919 0.608182
vt 0.481581 0.608182
vt 0.471227 0.907465
vt 0.994029 0.907465
vt 0.994029 0.994261
vt 0.471227 0.994261
vt 0.228028 0.386043
vt 0.441631 0.387354
vt 0.549568 0.203023
vt 0.122361 0.200402
vt 0.121226 0.195106
vt 0.548432 0.197727
vt 0.656369 0.013397
vt 0.01556 0.009465
vt 0.478083 0.531545
vt 0.98442 0.531545
vt 0.98442 0.608182
vt 0.478083 0.608182
vt 0.472651 0.907395
vt 0.995098 0.907395
vt 0.995098 0.993478
vt 0.472651 0.993478
vt 0.228552 0.386208
vt 0.442157 0.387081
vt 0.549717 0.202531
vt 0.122506 0.200783
vt 0.12118 0.202202
vt 0.548394 0.201329
vt 0.654819 0.016121
vt 0.013998 0.017432
vt 0.481973 0.531545
vt 0.98831 0.531545
vt 0.98831 0.608182
vt 0.481973 0.608182
vt 0.471567 0.9068
vt 0.994453 0.9068
vt 0.994453 0.996852
vt 0.471567 0.996852
# 127 texture verticies
vn 0.497755 -0.0946608 0.862137
vn -0.497755 -0.0946608 0.862137
vn 0 0 1
vn -0.99551 -0.0946608 0
vn -0.48958 -0.203097 0.847976
vn -0.979159 -0.203097 0
vn -0.497693 -0.0959546 0.862029
vn -0.995386 -0.0959546 0
vn -0.497472 0.10044 0.861646
vn -0.994943 0.10044 0
vn -0.497472 -0.10044 0.861646
vn -0.994943 -0.10044 0
vn -0.495164 0.138748 0.857649
vn -0.990328 0.138747 0
vn -0.490878 -0.190146 0.850226
vn -0.981756 -0.190146 0
vn -0.495918 0.127512 0.858956
vn -0.991837 0.127512 0
vn -0.489295 0.205818 0.847484
vn -0.97859 0.205818 0
vn -0.488419 0.213975 0.845968
vn -0.976839 0.213975 0
vn -0.94091 0.338656 0
vn -0.470455 0.338656 0.814853
vn 0 1 0
vn 0.99551 -0.0946608 0
vn 0.866025 0 0.5
vn 1 0 0
vn 0.48958 -0.203097 0.847976
vn 0.497693 -0.0959546 0.862029
vn 0.497472 0.10044 0.861646
vn 0.497472 -0.10044 0.861646
vn 0.495164 0.138748 0.857649
vn 0.490878 -0.190146 0.850226
vn 0.495918 0.127512 0.858956
vn 0.489295 0.205818 0.847484
vn 0.488419 0.213975 0.845968
vn 0.470455 0.338656 0.814853
vn 0.497755 -0.0946608 -0.862137
vn 0.866025 0 -0.5
vn 0.979159 -0.203097 0
vn 0.995386 -0.0959546 0
vn 0.994943 0.10044 0
vn 0.994943 -0.10044 0
vn 0.990328 0.138747 0
vn 0.981756 -0.190146 0
vn 0.991837 0.127512 0
vn 0.97859 0.205818 0
vn 0.976839 0.213975 0
vn 0.94091 0.338656 0
vn -0.497755 -0.0946608 -0.862137
vn 0 0 -1
vn 0.48958 -0.203097 -0.847976
vn 0.497693 -0.0959546 -0.862029
vn 0.497472 0.10044 -0.861646
vn 0.497472 -0.10044 -0.861646
vn 0.495164 0.138748 -0.857649
vn 0.490878 -0.190146 -0.850226
vn 0.495918 0.127512 -0.858956
vn 0.489295 0.205818 -0.847484
vn 0.488419 0.213975 -0.845968
vn 0.470455 0.338656 -0.814853
vn -0.866025 0 -0.5
vn -1 0 0
vn -0.48958 -0.203097 -0.847976
vn -0.497693 -0.0959546 -0.862029
vn -0.497472 0.10044 -0.861646
vn -0.497472 -0.10044 -0.861646
vn -0.495164 0.138748 -0.857649
vn -0.490878 -0.190146 -0.850226
vn -0.495918 0.127512 -0.858956
vn -0.489295 0.205818 -0.847484
vn -0.488419 0.213975 -0.845968
vn -0.470455 0.338656 -0.814853
vn -0.866025 0 0.5
# 75 normals
usemtl DefaultLib_Scene_Material
f  31/1/1 94/2/2 17/3/3 95/4/3
f  3/5/4 94/6/2 18/7/5 4/8/6
f  4/9/6 18/10/5 19/11/7 5/12/8
f  5/13/8 19/14/7 20/15/9 6/16/10
f  6/17/10 20/18/9 21/19/9 7/20/10
f  7/21/10 21/22/9 22/23/11 8/24/12
f  8/25/12 22/26/11 23/27/11 9/28/12
f  9/29/12 23/30/11 24/31/13 10/32/14
f  10/17/14 24/18/13 25/19/13 11/20/14
f  11/21/14 25/22/13 26/23/15 12/24/16
f  12/25/16 26/26/15 27/27/15 13/28/16
f  13/33/16 27/34/15 28/35/17 14/36/18
f  14/37/18 28/38/17 29/39/19 15/40/20
f  15/40/20 29/39/19 30/41/21 87/42/22
f  16/43/23 88/44/24 2/45/25
f  45/46/26 31/47/1 95/48/27 96/49/28
f  94/50/2 31/51/1 32/52/29 18/53/5
f  18/53/5 32/52/29 33/54/30 19/55/7
f  19/13/7 33/14/30 34/15/31 20/16/9
f  20/17/9 34/18/31 35/19/31 21/20/9
f  21/21/9 35/22/31 36/23/32 22/24/11
f  22/25/11 36/26/32 37/27/32 23/28/11
f  23/56/11 37/57/32 38/58/33 24/59/13
f  24/17/13 38/18/33 39/19/33 25/20/13
f  25/21/13 39/22/33 40/23/34 26/24/15
f  26/25/15 40/26/34 41/27/34 27/28/15
f  27/60/15 41/61/34 42/62/35 28/63/17
f  28/37/17 42/38/35 43/39/36 29/40/19
f  29/40/19 43/39/36 44/41/37 30/42/21
f  88/43/24 89/44/38 2/45/25
f  59/1/39 45/2/26 96/3/28 97/4/40
f  31/64/1 45/65/26 46/66/41 32/67/29
f  32/68/29 46/69/41 47/70/42 33/71/30
f  33/13/30 47/14/42 48/15/43 34/16/31
f  34/17/31 48/18/43 49/19/43 35/20/31
f  35/21/31 49/22/43 50/23/44 36/24/32
f  36/25/32 50/26/44 51/27/44 37/28/32
f  37/72/32 51/73/44 52/74/45 38/75/33
f  38/17/33 52/18/45 53/19/45 39/20/33
f  39/21/33 53/22/45 54/23/46 40/24/34
f  40/25/34 54/26/46 55/27/46 41/28/34
f  41/76/34 55/77/46 56/78/47 42/79/35
f  42/37/35 56/38/47 57/39/48 43/40/36
f  43/40/36 57/39/48 58/41/49 44/42/37
f  89/43/38 90/44/50 2/45/25
f  73/1/51 59/2/39 97/3/52 1/4/52
f  45/80/26 59/81/39 60/82/53 46/83/41
f  46/84/41 60/85/53 61/86/54 47/87/42
f  47/13/42 61/14/54 62/15/55 48/16/43
f  48/17/43 62/18/55 63/19/55 49/20/43
f  49/21/43 63/22/55 64/23/56 50/24/44
f  50/25/44 64/26/56 65/27/56 51/28/44
f  51/88/44 65/89/56 66/90/57 52/91/45
f  52/17/45 66/18/57 67/19/57 53/20/45
f  53/21/45 67/22/57 68/23/58 54/24/46
f  54/25/46 68/26/58 69/27/58 55/28/46
f  55/92/46 69/93/58 70/94/59 56/95/47
f  56/37/47 70/38/59 71/39/60 57/40/48
f  57/40/48 71/39/60 72/41/61 58/42/49
f  90/43/50 91/44/62 2/45/25
f  3/46/4 73/47/51 1/48/63 93/49/64
f  59/96/39 73/97/51 74/98/65 60/99/53
f  60/100/53 74/101/65 75/102/66 61/103/54
f  61/13/54 75/14/66 76/15/67 62/16/55
f  62/17/55 76/18/67 77/19/67 63/20/55
f  63/21/55 77/22/67 78/23/68 64/24/56
f  64/25/56 78/26/68 79/27/68 65/28/56
f  65/104/56 79/105/68 80/106/69 66/107/57
f  66/17/57 80/18/69 81/19/69 67/20/57
f  67/21/57 81/22/69 82/23/70 68/24/58
f  68/25/58 82/26/70 83/27/70 69/28/58
f  69/108/58 83/109/70 84/110/71 70/111/59
f  70/37/59 84/38/71 85/39/72 71/40/60
f  71/40/60 85/39/72 86/41/73 72/42/61
f  91/43/62 92/44/74 2/45/25
f  94/1/2 3/2/4 93/3/64 17/4/75
f  73/112/51 3/113/4 4/114/6 74/115/65
f  74/116/65 4/117/6 5/118/8 75/119/66
f  75/13/66 5/14/8 6/15/10 76/16/67
f  76/17/67 6/18/10 7/19/10 77/20/67
f  77/21/67 7/22/10 8/23/12 78/24/68
f  78/25/68 8/26/12 9/27/12 79/28/68
f  79/120/68 9/121/12 10/122/14 80/123/69
f  80/17/69 10/18/14 11/19/14 81/20/69
f  81/21/69 11/22/14 12/23/16 82/24/70
f  82/25/70 12/26/16 13/27/16 83/28/70
f  83/124/70 13/125/16 14/126/18 84/127/71
f  84/37/71 14/38/18 15/39/20 85/40/72
f  85/40/72 15/39/20 87/41/22 86/42/73
f  92/43/74 16/44/23 2/45/25
f  87/42/22 30/41/21 88/44/24 16/43/23
f  30/42/21 44/41/37 89/44/38 88/43/24
f  44/42/37 58/41/49 90/44/50 89/43/38
f  58/42/49 72/41/61 91/44/62 90/43/50
f  72/42/61 86/41/73 92/44/74 91/43/62
f  86/42/73 87/41/22 16/44/23 92/43/74
